<svg version="1.2" xmlns="http://www.w3.org/2000/svg" viewBox="0 0 220 34" width="220" height="34"><style>.a{fill:#fff}.b{fill:#e30b13}.c{fill:#ce080f}</style><path class="a" d="m46.5 25v-18.2h3.3l8.1 15.2v-15.2h2.3v18.2h-3.3l-8.1-15.2v15.2zm27.1-6.9h-2.2q-2.8 0-3.8 0.7-1.1 0.6-1.1 2.1 0 1.2 0.8 1.9 0.8 0.7 2.2 0.7 1.8 0 3-1.3 1.1-1.4 1.1-3.6zm2.2-0.9v7.8h-2.2v-2.1q-0.8 1.3-1.9 1.9-1.2 0.6-2.8 0.6-2.1 0-3.4-1.2-1.2-1.2-1.2-3.2 0-2.3 1.5-3.5 1.6-1.1 4.6-1.1h3.2v-0.2q0-1.6-1-2.4-1-0.9-2.9-0.9-1.2 0-2.3 0.3-1.1 0.3-2.1 0.8v-2q1.2-0.5 2.4-0.8 1.1-0.2 2.2-0.2 3 0 4.5 1.5 1.4 1.6 1.4 4.7zm16-0.5v8.3h-2.2v-8.2q0-1.9-0.8-2.9-0.7-0.9-2.2-0.9-1.9 0-2.9 1.1-1.1 1.2-1.1 3.2v7.7h-2.2v-13.7h2.2v2.2q0.8-1.3 1.9-1.9 1.1-0.6 2.6-0.6 2.3 0 3.5 1.5 1.2 1.4 1.2 4.2zm9.8-3.8q-1.8 0-2.8 1.4-1.1 1.4-1.1 3.9 0 2.4 1 3.8 1.1 1.5 2.9 1.5 1.8 0 2.9-1.5 1-1.4 1-3.8 0-2.5-1-3.9-1.1-1.4-2.9-1.4zm0-1.9q2.9 0 4.6 1.9 1.7 1.9 1.7 5.3 0 3.3-1.7 5.3-1.7 1.9-4.6 1.9-2.9 0-4.6-1.9-1.7-2-1.7-5.3 0-3.4 1.7-5.3 1.7-1.9 4.6-1.9zm7.6-2.1v-2.1h15.4v2.1h-6.5v16.1h-2.4v-16.1zm25.1 8.7v1.1h-10.3q0.1 2.3 1.4 3.5 1.2 1.3 3.5 1.3 1.2 0 2.5-0.4 1.2-0.3 2.4-0.9v2.1q-1.2 0.5-2.5 0.8-1.3 0.3-2.6 0.3-3.3 0-5.2-1.9-1.9-2-1.9-5.2 0-3.4 1.8-5.3 1.9-2 4.9-2 2.8 0 4.4 1.8 1.6 1.8 1.6 4.8zm-10.3-0.6l8.1-0.1q-0.1-1.8-1.1-2.9-1-1.1-2.6-1.1-1.9 0-3.1 1.1-1.1 1-1.3 3zm22.4 1.1h-2.2q-2.7 0-3.8 0.7-1 0.6-1 2.1 0 1.2 0.8 1.9 0.7 0.7 2.1 0.7 1.9 0 3-1.3 1.1-1.4 1.1-3.6zm2.3-0.9v7.8h-2.3v-2.1q-0.7 1.3-1.9 1.9-1.1 0.6-2.8 0.6-2.1 0-3.3-1.2-1.3-1.2-1.3-3.2 0-2.3 1.6-3.5 1.5-1.1 4.6-1.1h3.1v-0.2q0-1.6-1-2.4-1-0.9-2.9-0.9-1.1 0-2.2 0.3-1.1 0.3-2.2 0.8v-2q1.3-0.5 2.4-0.8 1.2-0.2 2.3-0.2 2.9 0 4.4 1.5 1.5 1.6 1.5 4.7zm4.6-9.8h2.2v3.9h4.7v1.8h-4.7v7.4q0 1.7 0.5 2.1 0.4 0.5 1.8 0.5h2.4v1.9h-2.4q-2.6 0-3.5-1-1-0.9-1-3.5v-7.4h-1.7v-1.8h1.7zm17.7 3.7v2.3q-0.4-0.2-0.8-0.3-0.4-0.1-1-0.1-1.9 0-2.9 1.2-1 1.3-1 3.6v7.2h-2.3v-13.7h2.3v2.1q0.7-1.2 1.8-1.8 1.2-0.6 2.8-0.6 0.2 0 0.5 0 0.3 0 0.6 0.1z"/><path class="a" d="m195.3 11.1v2.3q-0.4-0.2-0.9-0.3-0.4-0.1-0.9-0.1-1.9 0-3 1.2-1 1.3-1 3.6v7.2h-2.2v-13.7h2.2v2.2q0.7-1.3 1.9-1.9 1.1-0.6 2.7-0.6 0.3 0 0.5 0 0.3 0.1 0.7 0.1zm2.1 8.5v-8.3h2.2v8.2q0 2 0.8 2.9 0.8 1 2.3 1 1.8 0 2.8-1.2 1.1-1.1 1.1-3.1v-7.8h2.3v13.7h-2.3v-2.1q-0.8 1.2-1.9 1.9-1.1 0.6-2.5 0.6-2.4 0-3.6-1.5-1.2-1.5-1.2-4.3zm5.7-8.6z"/><path fill-rule="evenodd" class="b" d="m23 33q0 0 0 0zm0 0q1.2 0 2.3-0.2 1.1-0.1 2.3-0.5 1.1-0.3 2.1-0.8 1.1-0.5 2-1.1h7.3v2.6zm0 0c-8.9 0-16-7.2-16-16 0-8.8 7.1-16 16-16v5.8q-0.7 0-1.3 0.3-0.6 0.2-1 0.7-0.5 0.4-0.7 1-0.3 0.6-0.3 1.2 0 0.7 0.3 1.3 0.2 0.6 0.7 1 0.4 0.5 1 0.7 0.6 0.3 1.3 0.3v7.4q-0.7 0-1.3 0.3-0.6 0.2-1 0.7-0.5 0.4-0.7 1-0.3 0.6-0.3 1.2 0 0.7 0.3 1.3 0.2 0.6 0.7 1 0.4 0.5 1 0.7 0.6 0.3 1.3 0.3zm-5.8-13q0.6-0.3 1.1-0.7 0.4-0.5 0.7-1.1 0.2-0.6 0.2-1.2 0-0.7-0.2-1.3-0.3-0.5-0.7-1-0.5-0.5-1.1-0.7-0.6-0.2-1.2-0.3-0.6 0.1-1.2 0.3-0.6 0.2-1.1 0.7-0.4 0.5-0.7 1-0.2 0.6-0.2 1.3 0 0.6 0.2 1.2 0.3 0.6 0.7 1.1 0.5 0.4 1.1 0.7 0.6 0.2 1.2 0.2 0.6 0 1.2-0.2z"/><path fill-rule="evenodd" class="c" d="m31.7 30.4c-2.5 1.6-5.5 2.6-8.7 2.6v-5.8q0.6 0 1.2-0.3 0.6-0.2 1.1-0.7 0.4-0.4 0.7-1 0.2-0.6 0.2-1.2 0-0.7-0.2-1.3-0.3-0.6-0.7-1-0.5-0.5-1.1-0.7-0.6-0.3-1.2-0.3v-7.4q0.6 0 1.2-0.3 0.6-0.2 1.1-0.7 0.4-0.4 0.7-1 0.2-0.6 0.2-1.2 0-0.7-0.2-1.3-0.3-0.6-0.7-1-0.5-0.5-1.1-0.7-0.6-0.3-1.2-0.3v-5.8c8.8 0 16 7.2 16 16 0 5.6-2.9 10.6-7.3 13.4zm-3-16.4q-0.6 0.3-1 0.7-0.5 0.5-0.7 1.1-0.3 0.6-0.3 1.2 0 0.6 0.3 1.2 0.2 0.6 0.7 1.1 0.4 0.4 1 0.7 0.6 0.2 1.2 0.2 0.7 0 1.3-0.2 0.6-0.3 1-0.7 0.5-0.5 0.7-1.1 0.3-0.6 0.3-1.2 0-0.6-0.3-1.2-0.2-0.6-0.7-1.1-0.4-0.4-1-0.7-0.6-0.2-1.2-0.2-0.7 0-1.3 0.2z"/><path class="b" d="m176.5 25.1c-1.2 0-2.2-0.9-2.2-2 0-1.1 1-2 2.2-2 1.2 0 2.2 0.9 2.2 2 0 1.1-1 2-2.2 2z"/></svg>